<?xml version="1.0" standalone="no"?>
<!DOCTYPE svg PUBLIC "-//W3C//DTD SVG 20010904//EN"
 "http://www.w3.org/TR/2001/REC-SVG-20010904/DTD/svg10.dtd">
<svg version="1.0" xmlns="http://www.w3.org/2000/svg"
 width="500.000000pt" height="500.000000pt" viewBox="0 0 500.000000 500.000000"
 preserveAspectRatio="xMidYMid meet">
<metadata>
Created by potrace 1.14, written by Peter Selinger 2001-2017
</metadata>
<g transform="translate(0.000000,500.000000) scale(0.100000,-0.100000)"
fill="#000000" stroke="none">
<path d="M1055 3728 c-3 -7 -4 -247 -3 -533 l3 -520 150 -3 c132 -2 151 -1
162 15 9 12 13 70 13 205 l0 187 153 3 152 3 3 112 3 112 -153 3 -153 3 -3 93
-3 92 229 0 c168 0 233 3 245 13 15 10 17 27 15 117 l-3 105 -403 3 c-317 2
-404 0 -407 -10z"/>
<path d="M1984 3726 c-3 -7 -4 -182 -2 -387 4 -413 6 -430 71 -525 73 -108
159 -145 352 -152 272 -9 407 62 471 248 17 50 19 87 19 440 l0 385 -130 0
-130 0 -5 -365 c-5 -343 -6 -367 -26 -404 -26 -51 -74 -76 -142 -76 -69 0
-106 20 -134 73 -22 41 -23 50 -26 410 l-4 367 -154 0 c-122 0 -156 -3 -160
-14z"/>
<path d="M3045 3728 c-3 -7 -4 -247 -3 -533 l3 -520 125 0 125 0 3 278 c2 210
5 278 14 275 7 -3 104 -129 216 -281 l204 -277 118 0 c87 0 120 4 129 14 8 9
10 157 9 532 l-3 519 -124 3 c-93 2 -126 -1 -133 -10 -4 -7 -8 -125 -8 -261 0
-137 -4 -246 -9 -243 -4 3 -86 114 -181 247 -95 132 -180 247 -187 255 -20 19
-291 21 -298 2z"/>
<path d="M460 2346 c-9 -12 15 -102 120 -453 73 -241 138 -448 146 -460 14
-22 21 -23 129 -23 108 0 115 1 129 22 7 13 42 120 76 238 34 118 66 222 71
230 10 18 1 43 84 -240 37 -123 71 -230 77 -237 15 -18 231 -18 245 0 16 19
275 894 271 914 -3 16 -15 18 -113 18 l-109 0 -52 -195 c-29 -107 -60 -223
-70 -258 -9 -35 -20 -60 -24 -55 -4 4 -38 114 -75 243 -37 129 -71 243 -76
252 -8 16 -25 18 -123 18 -79 0 -117 -4 -124 -12 -5 -7 -41 -122 -78 -255 -37
-134 -70 -243 -73 -243 -3 0 -37 109 -75 243 -37 133 -73 248 -78 255 -16 19
-261 17 -278 -2z"/>
<path d="M2147 2318 c-90 -238 -307 -867 -305 -883 3 -18 12 -20 112 -23 69
-2 113 1 121 8 8 7 26 47 40 91 l27 79 151 0 152 0 30 -88 31 -87 142 -3 c122
-2 143 0 148 13 6 16 -299 898 -318 923 -8 9 -53 12 -163 12 l-152 0 -16 -42z
m194 -373 c21 -61 36 -116 34 -122 -3 -9 -29 -13 -85 -13 -69 0 -80 2 -80 18
0 29 74 232 84 229 5 -2 26 -52 47 -112z"/>
<path d="M2826 2351 c-8 -13 300 -922 316 -932 7 -5 68 -9 135 -9 92 0 125 3
136 14 17 18 316 906 310 924 -3 9 -37 12 -119 12 l-115 0 -13 -32 c-7 -18
-46 -151 -87 -295 -41 -145 -77 -263 -80 -263 -3 0 -36 100 -74 223 -37 122
-77 254 -89 292 l-22 70 -146 3 c-83 1 -149 -2 -152 -7z"/>
<path d="M3786 2344 c-3 -9 -6 -217 -6 -463 0 -334 3 -450 12 -459 19 -19 721
-17 737 2 8 9 11 46 9 103 l-3 88 -227 3 -228 2 0 80 0 80 123 0 c160 0 159
-1 155 115 l-3 90 -135 5 -135 5 -3 77 -3 78 218 2 218 3 7 85 c11 134 52 120
-367 120 -322 0 -364 -2 -369 -16z"/>
</g>
</svg>
